# Blender v2.78 (sub 0) OBJ File: ''
# www.blender.org
mtllib cone.mtl
o Cone
v -0.250000 -0.500000 0.433000
v -0.129400 -0.500000 0.482950
v 0.000000 0.500000 0.000000
v 0.000000 -0.500000 0.500000
v -0.500000 -0.500000 -0.000000
v -0.482950 -0.500000 0.129400
v -0.433000 -0.500000 0.250000
v 0.482950 -0.500000 -0.129400
v 0.500000 -0.500000 -0.000000
v -0.353550 -0.500000 0.353550
v 0.433000 -0.500000 -0.250000
v 0.353550 -0.500000 -0.353550
v 0.250000 -0.500000 -0.433000
v -0.482950 -0.500000 -0.129400
v -0.433000 -0.500000 -0.250000
v -0.353550 -0.500000 -0.353550
v -0.250000 -0.500000 -0.433000
v -0.129400 -0.500000 -0.482950
v 0.000000 -0.500000 -0.500000
v 0.129400 -0.500000 -0.482950
v 0.482950 -0.500000 0.129400
v 0.433000 -0.500000 0.250000
v 0.129400 -0.500000 0.482950
v 0.353550 -0.500000 0.353550
v 0.250000 -0.500000 0.433000
vt 0.6092 0.9907
vt 0.5550 0.9746
vt 0.7140 0.5000
vt 0.5046 0.9522
vt 0.5046 0.4522
vt 0.4612 0.4250
vt 0.7140 0.0000
vt 0.4280 0.3949
vt 0.7472 0.4250
vt 1.0000 0.0000
vt 0.7905 0.4522
vt 0.7140 1.0000
vt 0.6635 0.9993
vt 0.7140 0.3949
vt 0.2354 0.9452
vt 0.2860 0.4459
vt 0.2860 0.9459
vt 0.1812 0.9366
vt 0.4135 0.3090
vt 0.3853 0.3599
vt 0.4280 0.2523
vt 0.4280 0.1936
vt 0.3454 0.4014
vt 0.2966 0.4307
vt 0.2422 0.4459
vt 0.1858 0.4459
vt 0.1314 0.4307
vt 0.0826 0.4014
vt 0.0428 0.3598
vt 0.0146 0.3090
vt 0.0000 0.2523
vt 0.0000 0.1936
vt 0.0146 0.1369
vt 0.0428 0.0861
vt 0.0826 0.0445
vt 0.4135 0.1369
vt 0.1314 0.0152
vt 0.1858 0.0000
vt 0.2422 0.0000
vt 0.3853 0.0861
vt 0.2966 0.0152
vt 0.3454 0.0445
vt 0.4612 0.9250
vt 0.4280 0.8949
vt 0.9494 0.4993
vt 1.0000 0.5000
vt 0.8952 0.4907
vt 0.8410 0.4746
vt 0.7140 0.5000
vt 0.6635 0.4993
vt 0.6092 0.4907
vt 0.5550 0.4746
vt 0.1270 0.9205
vt 0.0765 0.8981
vt 0.0332 0.8709
vt 0.0000 0.8408
vn -0.3428 0.4441 0.8278
vn -0.1170 0.4441 0.8883
vn -0.8883 0.4441 0.1170
vn -0.8278 0.4441 0.3428
vn 0.8883 0.4441 -0.1170
vn -0.7108 0.4441 0.5454
vn 0.8278 0.4441 -0.3428
vn -0.5454 0.4441 0.7108
vn 0.7108 0.4441 -0.5454
vn 0.5454 0.4441 -0.7108
vn 0.0000 -1.0000 -0.0000
vn 0.1170 0.4441 0.8883
vn 0.3428 0.4441 0.8278
vn 0.5454 0.4441 0.7108
vn 0.7108 0.4441 0.5454
vn 0.8278 0.4441 0.3428
vn 0.8883 0.4441 0.1170
vn -0.5454 0.4441 -0.7108
vn -0.7108 0.4441 -0.5454
vn -0.8278 0.4441 -0.3428
vn -0.8883 0.4441 -0.1170
vn 0.3428 0.4441 -0.8278
vn 0.1170 0.4441 -0.8883
vn -0.1170 0.4441 -0.8883
vn -0.3428 0.4441 -0.8278
usemtl None
s 1
f 1/1/1 2/2/1 3/3/1
f 2/2/2 4/4/2 3/3/2
f 5/5/3 6/6/3 3/7/3
f 6/6/4 7/8/4 3/7/4
f 8/9/5 3/10/5 9/11/5
f 7/12/6 10/13/6 3/3/6
f 11/14/7 3/10/7 8/9/7
f 10/13/8 1/1/8 3/3/8
f 12/15/9 3/16/9 11/17/9
f 12/15/10 13/18/10 3/16/10
f 10/19/11 7/20/11 1/21/11
f 2/22/11 1/21/11 7/20/11
f 7/20/11 6/23/11 2/22/11
f 6/23/11 5/24/11 2/22/11
f 5/24/11 14/25/11 2/22/11
f 14/25/11 15/26/11 2/22/11
f 15/26/11 16/27/11 2/22/11
f 16/27/11 17/28/11 2/22/11
f 17/28/11 18/29/11 2/22/11
f 18/29/11 19/30/11 2/22/11
f 19/30/11 20/31/11 2/22/11
f 20/31/11 13/32/11 2/22/11
f 13/32/11 12/33/11 2/22/11
f 12/33/11 11/34/11 2/22/11
f 11/34/11 8/35/11 2/22/11
f 4/36/11 2/22/11 8/35/11
f 4/36/11 8/35/11 9/37/11
f 4/36/11 9/37/11 21/38/11
f 22/39/11 23/40/11 21/38/11
f 24/41/11 25/42/11 22/39/11
f 23/40/11 22/39/11 25/42/11
f 4/36/11 21/38/11 23/40/11
f 23/43/12 3/3/12 4/4/12
f 25/44/13 3/3/13 23/43/13
f 24/45/14 3/10/14 25/46/14
f 22/47/15 3/10/15 24/45/15
f 21/48/16 3/10/16 22/47/16
f 9/11/17 3/10/17 21/48/17
f 17/49/18 16/50/18 3/7/18
f 16/50/19 15/51/19 3/7/19
f 15/51/20 14/52/20 3/7/20
f 14/52/21 5/5/21 3/7/21
f 13/18/22 20/53/22 3/16/22
f 20/53/23 19/54/23 3/16/23
f 19/54/24 18/55/24 3/16/24
f 18/55/25 17/56/25 3/16/25
