# Blender v2.78 (sub 0) OBJ File: ''
# www.blender.org
mtllib cube.mtl
o Brilliant_Gogo-Juttuli
v 0.500000 1.000000 -0.200000
v 0.500000 0.000000 -0.200000
v 0.500000 0.000000 -1.200000
v 0.500000 1.000000 -1.200000
v -0.500000 1.000000 -1.200000
v -0.500000 1.000000 -0.200000
v -0.500000 0.000000 -1.200000
v -0.500000 0.000000 -0.200000
vt 0.0000 0.0000
vt 1.0000 0.0000
vt 1.0000 1.0000
vt 1.0000 0.0000
vt 1.0000 1.0000
vt 0.0000 0.0000
vt 1.0000 0.0000
vt 1.0000 1.0000
vt 1.0000 0.0000
vt 1.0000 1.0000
vt 0.0000 0.0000
vt 1.0000 0.0000
vt 1.0000 1.0000
vt 1.0000 0.0000
vt 0.0000 0.0000
vt 1.0000 1.0000
vt 1.0000 1.0000
vt 0.0000 0.0000
vt 1.0000 1.0000
vn 1.0000 0.0000 0.0000
vn 0.0000 1.0000 0.0000
vn -1.0000 0.0000 0.0000
vn 0.0000 -1.0000 0.0000
vn 0.0000 0.0000 -1.0000
vn 0.0000 0.0000 1.0000
usemtl None
s off
f 1/1/1 2/2/1 3/3/1
f 1/1/1 3/4/1 4/5/1
f 4/6/2 5/7/2 6/8/2
f 4/6/2 6/9/2 1/10/2
f 5/11/3 7/12/3 8/13/3
f 5/11/3 8/14/3 6/8/3
f 2/15/4 8/14/4 7/16/4
f 2/15/4 7/12/4 3/3/4
f 4/6/5 3/4/5 7/16/5
f 4/6/5 7/12/5 5/17/5
f 6/18/6 8/14/6 2/19/6
f 6/18/6 2/2/6 1/10/6
