# Blender v2.78 (sub 0) OBJ File: 'cylinder.obj'
# www.blender.org
mtllib cylinder2.mtl
o Cylinder
v -0.350000 -0.000000 0.150000
v -0.325550 -0.000000 0.304500
v -0.325550 1.000000 0.304500
v -0.254500 -0.000000 0.443900
v -0.004500 -0.000000 0.625550
v -0.004500 1.000000 0.625550
v -0.143900 -0.000000 0.554500
v 0.150000 -0.000000 0.650000
v -0.350000 1.000000 0.150000
v -0.254500 1.000000 0.443900
v -0.143900 1.000000 0.554500
v -0.325550 1.000000 -0.004500
v -0.325550 0.000000 -0.004500
v 0.304500 -0.000000 0.625550
v 0.304500 1.000000 0.625550
v 0.150000 1.000000 0.650000
v 0.443900 -0.000000 0.554500
v 0.443900 1.000000 0.554500
v 0.625550 0.000000 -0.004500
v 0.650000 1.000000 0.150000
v 0.650000 -0.000000 0.150000
v 0.554500 1.000000 0.443900
v 0.554500 -0.000000 0.443900
v 0.625550 1.000000 0.304500
v 0.625550 -0.000000 0.304500
v -0.254500 0.000000 -0.143900
v -0.143900 0.000000 -0.254500
v -0.004500 0.000000 -0.325550
v 0.150000 0.000000 -0.350000
v 0.304500 0.000000 -0.325550
v 0.443900 0.000000 -0.254500
v 0.554500 0.000000 -0.143900
v -0.143900 1.000000 -0.254500
v 0.625550 1.000000 -0.004500
v -0.004500 1.000000 -0.325550
v -0.254500 1.000000 -0.143900
v 0.150000 1.000000 -0.350000
v 0.554500 1.000000 -0.143900
v 0.443900 1.000000 -0.254500
v 0.304500 1.000000 -0.325550
vt 0.2053 0.4969
vt 0.2500 0.4969
vt 0.2500 1.0000
vt 0.5000 1.0000
vt 0.4552 1.0000
vt 0.5000 0.4969
vt 0.3473 1.0000
vt 0.3473 0.4969
vt 0.4027 1.0000
vt 0.2947 1.0000
vt 0.2053 1.0000
vt 0.4552 0.4969
vt 0.4027 0.4969
vt 0.1527 1.0000
vt 0.1527 0.4969
vt 0.2500 1.0000
vt 0.2500 0.4969
vt 0.2947 0.4969
vt 0.5000 0.4969
vt 0.5448 0.4969
vt 0.5000 1.0000
vt 0.5448 1.0000
vt 0.7500 0.4969
vt 0.7053 1.0000
vt 0.7053 0.4969
vt 0.5973 1.0000
vt 0.5973 0.4969
vt 0.6527 1.0000
vt 0.6527 0.4969
vt 0.0496 0.0706
vt 0.0943 0.0243
vt 0.1469 0.0000
vt 0.2022 0.0000
vt 0.2549 0.0243
vt 0.2996 0.0706
vt 0.3321 0.1342
vt 0.3492 0.2091
vt 0.3492 0.2878
vt 0.3321 0.3627
vt 0.2996 0.4263
vt 0.0000 0.2878
vt 0.0171 0.3627
vt 0.0000 0.2091
vt 0.0171 0.1342
vt 0.0496 0.4263
vt 0.2549 0.4726
vt 0.2022 0.4969
vt 0.1469 0.4969
vt 0.0943 0.4726
vt 0.6984 0.2091
vt 0.4435 0.0243
vt 0.6813 0.1342
vt 0.6984 0.2878
vt 0.6813 0.3627
vt 0.6488 0.4263
vt 0.6488 0.0706
vt 0.4961 0.0000
vt 0.5514 0.0000
vt 0.6040 0.0243
vt 0.6040 0.4726
vt 0.3988 0.0706
vt 0.5514 0.4969
vt 0.4961 0.4969
vt 0.4435 0.4726
vt 0.3988 0.4263
vt 0.3663 0.3627
vt 0.3492 0.2878
vt 0.3492 0.2091
vt 0.3663 0.1342
vt 0.7500 1.0000
vt 1.0000 0.4969
vt 1.0000 1.0000
vt 0.9552 0.4969
vt 0.9552 1.0000
vt 0.9027 1.0000
vt 0.9027 0.4969
vt 0.8473 1.0000
vt 0.8473 0.4969
vt 0.7947 0.4969
vt 0.7947 1.0000
vt 0.7500 1.0000
vt 0.7500 0.4969
vt 0.0448 1.0000
vt 0.0000 1.0000
vt 0.0448 0.4969
vt 0.0000 0.4969
vt 0.0973 0.4969
vt 0.0973 1.0000
vn -0.9877 -0.0000 0.1563
vn -0.8909 -0.0000 0.4541
vn -0.4541 -0.0000 0.8909
vn -0.1563 -0.0000 0.9877
vn -0.7071 -0.0000 0.7071
vn -0.9877 0.0000 -0.1563
vn 0.1563 -0.0000 0.9877
vn 0.4541 -0.0000 0.8909
vn 0.9877 0.0000 -0.1563
vn 0.7071 -0.0000 0.7071
vn 0.9877 0.0000 0.1563
vn 0.8909 -0.0000 0.4541
vn 0.0000 -1.0000 -0.0000
vn 0.0000 1.0000 -0.0000
vn 0.8909 0.0000 -0.4541
vn 0.7071 0.0000 -0.7071
vn 0.4541 0.0000 -0.8909
vn 0.1563 0.0000 -0.9877
vn -0.1563 0.0000 -0.9877
vn -0.4541 0.0000 -0.8909
vn -0.7071 0.0000 -0.7071
vn -0.8909 0.0000 -0.4541
usemtl None
s 1
f 1/1/1 2/2/1 3/3/1
f 2/4/2 4/5/2 3/6/2
f 5/7/3 6/8/3 7/9/3
f 8/10/4 6/8/4 5/7/4
f 9/11/1 1/1/1 3/3/1
f 3/6/2 4/5/2 10/12/2
f 11/13/5 10/12/5 7/9/5
f 4/5/5 7/9/5 10/12/5
f 12/14/6 13/15/6 9/11/6
f 1/1/6 9/11/6 13/15/6
f 8/10/7 14/16/7 15/17/7
f 6/8/3 11/13/3 7/9/3
f 16/18/7 8/10/7 15/17/7
f 8/10/4 16/18/4 6/8/4
f 14/19/8 17/20/8 15/21/8
f 17/20/8 18/22/8 15/21/8
f 19/23/9 20/24/9 21/25/9
f 22/26/10 18/22/10 17/20/10
f 22/26/10 17/20/10 23/27/10
f 21/25/11 20/24/11 24/28/11
f 23/27/12 25/29/12 24/28/12
f 23/27/12 24/28/12 22/26/12
f 25/29/11 21/25/11 24/28/11
f 1/30/13 13/31/13 26/32/13
f 1/30/13 26/32/13 27/33/13
f 1/30/13 27/33/13 28/34/13
f 1/30/13 28/34/13 29/35/13
f 1/30/13 29/35/13 30/36/13
f 1/30/13 30/36/13 31/37/13
f 1/30/13 31/37/13 32/38/13
f 1/30/13 32/38/13 19/39/13
f 1/30/13 19/39/13 21/40/13
f 7/41/13 21/40/13 5/42/13
f 4/43/13 21/40/13 7/41/13
f 2/44/13 21/40/13 4/43/13
f 1/30/13 21/40/13 2/44/13
f 8/45/13 5/42/13 21/40/13
f 8/45/13 21/40/13 25/46/13
f 8/45/13 25/46/13 23/47/13
f 8/45/13 23/47/13 17/48/13
f 8/45/13 17/48/13 14/49/13
f 33/50/14 34/51/14 35/52/14
f 36/53/14 34/51/14 33/50/14
f 12/54/14 34/51/14 36/53/14
f 9/55/14 34/51/14 12/54/14
f 37/56/14 35/52/14 34/51/14
f 37/56/14 34/51/14 38/57/14
f 37/56/14 38/57/14 39/58/14
f 37/56/14 39/58/14 40/59/14
f 3/60/14 20/61/14 9/55/14
f 34/51/14 9/55/14 20/61/14
f 20/61/14 3/60/14 10/62/14
f 20/61/14 10/62/14 11/63/14
f 20/61/14 11/63/14 6/64/14
f 20/61/14 6/64/14 16/65/14
f 20/61/14 16/65/14 15/66/14
f 20/61/14 15/66/14 18/67/14
f 20/61/14 18/67/14 22/68/14
f 20/61/14 22/68/14 24/69/14
f 34/70/9 20/24/9 19/23/9
f 34/71/15 19/72/15 38/73/15
f 32/74/15 38/73/15 19/72/15
f 31/75/16 39/76/16 38/73/16
f 31/75/16 38/73/16 32/74/16
f 31/75/17 30/77/17 40/78/17
f 31/75/17 40/78/17 39/76/17
f 37/79/18 40/78/18 29/80/18
f 30/77/18 29/80/18 40/78/18
f 28/81/19 35/82/19 29/80/19
f 37/79/19 29/80/19 35/82/19
f 33/83/20 35/84/20 27/85/20
f 28/86/20 27/85/20 35/84/20
f 27/85/21 26/87/21 36/88/21
f 27/85/21 36/88/21 33/83/21
f 12/14/22 36/88/22 13/15/22
f 26/87/22 13/15/22 36/88/22
