# Blender v2.79 (sub 0) OBJ File: ''
# www.blender.org
mtllib full_wall.mtl
o Middle
v -22.526226 0.000008 -25.090006
v -22.526226 -0.000008 24.909994
v -22.526226 138.298004 24.910017
v -22.526226 138.298004 -25.089983
v 27.473774 -0.000008 24.909994
v 27.473774 138.298004 24.910017
v 27.473774 138.298004 -25.089983
v 27.473774 0.000008 -25.090006
v 25.473774 139.000000 18.910017
v 25.473774 150.000000 18.910019
v 25.473774 150.000000 23.910019
v 25.473774 139.000000 23.910017
v 5.473774 150.000000 23.910019
v 5.473774 139.000000 23.910017
v -19.526226 150.000000 18.910019
v -19.526226 139.000000 18.910017
v -19.526226 139.000000 23.910017
v -19.526226 150.000000 23.910019
v 5.473774 139.000000 18.910017
v 5.473774 150.000000 18.910019
v 0.473774 150.000000 23.910019
v 0.473774 139.000000 23.910017
v 0.473774 139.000000 18.910017
v 0.473774 150.000000 18.910019
vt 0.500000 0.734463
vt 0.250000 0.734463
vt 0.250000 0.000000
vt 0.500000 0.000000
vt 0.750000 0.734463
vt 0.500000 0.734463
vt 0.750000 0.000000
vt 0.500000 0.000000
vt 1.000000 0.734463
vt 0.750000 0.734463
vt 0.750000 0.000000
vt 1.000000 0.000000
vt 0.525000 0.899096
vt 0.525000 0.840678
vt 0.550000 0.840678
vt 0.550000 0.899096
vt 0.610000 0.840678
vt 0.555000 0.840678
vt 0.555000 0.734463
vt 0.610000 0.734463
vt 0.845000 0.792882
vt 0.845000 0.851300
vt 0.820000 0.851300
vt 0.820000 0.792882
vt 0.665000 0.734463
vt 0.720000 0.734463
vt 0.720000 0.840678
vt 0.665000 0.840678
vt 0.250000 0.734463
vt 0.000000 0.734463
vt 0.250000 0.000000
vt 0.820000 0.792882
vt 0.820000 0.734463
vt 0.845000 0.734463
vt 0.845000 0.792882
vt 0.525000 0.840678
vt 0.525000 0.899096
vt 0.500000 0.899096
vt 0.500000 0.840678
vt 0.000000 0.000000
vt 0.770000 0.734463
vt 0.770000 0.840678
vt 0.745000 0.840678
vt 0.745000 0.734463
vt 0.795000 0.840678
vt 0.795000 0.734463
vt 0.820000 0.734463
vt 0.820000 0.840678
vt 0.250000 1.000000
vt 0.000000 0.734464
vt 0.250000 0.734463
vt 0.000000 1.000000
vt 0.745000 0.734463
vt 0.745000 0.840678
vt 0.250000 1.000000
vt 0.500000 1.000000
vt 0.795000 0.734463
vt 0.795000 0.840678
vt 0.770000 0.840678
vt 0.770000 0.734463
vt 0.555000 0.840678
vt 0.500000 0.840678
vt 0.500000 0.734463
vt 0.555000 0.734463
vt 0.610000 0.840678
vt 0.610000 0.734463
vt 0.665000 0.734463
vt 0.665000 0.840678
vn -1.0000 0.0000 0.0000
vn 0.0000 -0.0000 1.0000
vn 1.0000 0.0000 0.0000
vn 0.0000 0.0000 -1.0000
vn 0.0000 1.0000 0.0000
vn 0.0000 -1.0000 0.0000
usemtl None
s 1
f 1/1/1 2/2/1 3/3/1
f 1/1/1 3/3/1 4/4/1
f 2/5/2 5/6/2 3/7/2
f 6/8/2 3/7/2 5/6/2
f 7/9/3 6/10/3 5/11/3
f 7/9/3 5/11/3 8/12/3
f 9/13/3 10/14/3 11/15/3
f 9/13/3 11/15/3 12/16/3
f 13/17/2 14/18/2 12/19/2
f 13/17/2 12/19/2 11/20/2
f 15/21/1 16/22/1 17/23/1
f 15/21/1 17/23/1 18/24/1
f 10/25/4 9/26/4 19/27/4
f 10/25/4 19/27/4 20/28/4
f 8/29/4 1/30/4 7/31/4
f 14/32/1 13/33/1 20/34/1
f 14/32/1 20/34/1 19/35/1
f 21/36/3 22/37/3 23/38/3
f 21/36/3 23/38/3 24/39/3
f 4/40/4 7/31/4 1/30/4
f 24/41/5 15/42/5 18/43/5
f 24/41/5 18/43/5 21/44/5
f 13/45/5 11/46/5 10/47/5
f 13/45/5 10/47/5 20/48/5
f 4/49/5 6/50/5 7/51/5
f 4/49/5 3/52/5 6/50/5
f 12/53/6 14/54/6 19/27/6
f 12/53/6 19/27/6 9/26/6
f 1/55/6 8/29/6 5/6/6
f 5/6/6 2/56/6 1/55/6
f 22/57/6 17/58/6 16/59/6
f 22/57/6 16/59/6 23/60/6
f 18/61/2 17/62/2 22/63/2
f 18/61/2 22/63/2 21/64/2
f 23/65/4 16/66/4 15/67/4
f 23/65/4 15/67/4 24/68/4
o Stairs
v -23.234095 39.429016 -104.929443
v -23.234095 59.143021 -104.929443
v -23.234095 59.143024 -124.929443
v -23.234095 39.429024 -124.929443
v -23.234095 39.429024 -144.929443
v -23.234095 19.714024 -144.929443
v -23.234095 19.714024 -124.929451
v -23.234095 0.000023 -144.929443
v -23.234095 19.714027 -164.929443
v -23.234095 0.000027 -164.929443
v -23.234095 138.000000 -24.929432
v -23.234095 138.000000 -44.929432
v -23.234095 118.286011 -44.929432
v -23.234095 118.286011 -24.929432
v -23.234095 0.000011 -64.929451
v -23.234095 59.143017 -84.929443
v -23.234095 0.000015 -84.929451
v -23.234095 98.571014 -84.929436
v -23.234095 78.857018 -84.929443
v -23.234095 98.571014 -64.929436
v -23.234095 78.857018 -104.929443
v -23.234095 98.571007 -44.929436
v -23.234095 118.286011 -64.929436
v 76.765907 138.000000 -24.929432
v 76.765907 118.286011 -24.929432
v 76.765907 59.143021 -104.929443
v 76.765907 78.857018 -104.929443
v 76.765907 78.857018 -84.929443
v 76.765907 0.000027 -164.929443
v 76.765907 0.000023 -144.929443
v 76.765907 0.000015 -84.929451
v 76.765907 0.000011 -64.929451
v 76.765907 118.286011 -44.929432
v 76.765907 98.571007 -44.929436
v 76.765907 98.571014 -64.929436
v 76.765907 118.286011 -64.929436
v 76.765907 19.714024 -144.929443
v 76.765907 39.429024 -144.929443
v 76.765907 39.429024 -124.929443
v 76.765907 19.714024 -124.929451
v 76.765907 19.714027 -164.929443
v 76.765907 138.000000 -44.929432
v 76.765907 59.143024 -124.929443
v 76.765907 39.429016 -104.929443
v 76.765907 59.143017 -84.929443
v 76.765907 98.571014 -84.929436
vt 0.864423 0.800000
vt 0.798078 0.800000
vt 0.798078 0.733333
vt 0.864422 0.733333
vt 0.731729 0.733333
vt 0.798078 0.733333
vt 0.798078 0.800000
vt 0.731729 0.800000
vt 0.798074 0.866667
vt 0.731729 0.866667
vt 0.731729 0.800000
vt 0.798074 0.800000
vt 0.798078 0.733333
vt 0.798078 0.666667
vt 0.864423 0.666667
vt 0.864423 0.733333
vt 0.530766 0.328570
vt 0.598074 0.131427
vt 0.598074 0.328570
vt 0.598073 0.000000
vt 0.598074 0.065713
vt 0.530766 0.000000
vt 0.665381 0.065713
vt 0.665381 0.131427
vt 0.731729 0.800000
vt 0.665381 0.800000
vt 0.665381 0.733333
vt 0.731729 0.733333
vt 0.530759 0.666667
vt 0.530759 1.000000
vt 0.464415 1.000000
vt 0.464415 0.666667
vt 0.665381 0.525713
vt 0.665381 0.591427
vt 0.598074 0.591427
vt 0.732688 0.666667
vt 0.732688 0.333333
vt 0.799996 0.333333
vt 0.799996 0.666667
vt 0.403845 0.666667
vt 0.403845 0.333333
vt 0.471152 0.333333
vt 0.471152 0.666667
vt 0.731729 0.666667
vt 0.798078 0.666667
vt 0.798078 0.733333
vt 0.731729 0.733333
vt 0.731729 0.733333
vt 0.665381 0.733333
vt 0.665381 0.666667
vt 0.731729 0.666667
vt 0.066345 1.000000
vt 0.066345 0.666667
vt 0.132690 0.666667
vt 0.132690 1.000000
vt 0.864422 0.800000
vt 0.864422 0.866666
vt 0.798078 0.866666
vt 0.798078 0.800000
vt 0.867303 0.000000
vt 0.867303 0.333333
vt 0.799996 0.333333
vt 0.799996 0.000000
vt 0.731726 0.866667
vt 0.665381 0.866667
vt 0.665381 0.800000
vt 0.731726 0.800000
vt 0.530766 0.657140
vt 0.530766 0.328570
vt 0.598074 0.525713
vt 0.598074 0.328570
vt 0.199035 1.000000
vt 0.199035 0.666667
vt 0.265380 0.666667
vt 0.265380 1.000000
vt 0.000000 1.000000
vt 0.000000 0.666667
vt 0.066345 0.666667
vt 0.066345 1.000000
vt 0.331725 1.000000
vt 0.265380 1.000000
vt 0.265380 0.666667
vt 0.331725 0.666667
vt 0.930767 0.733333
vt 0.930767 0.800000
vt 0.864423 0.800000
vt 0.864423 0.733333
vt 0.336537 0.666667
vt 0.269230 0.333333
vt 0.336537 0.333333
vt 0.732688 0.000000
vt 0.732688 0.333333
vt 0.665381 0.333333
vt 0.665381 0.000000
vt 0.598074 0.657140
vt 0.665381 0.333333
vt 0.732688 0.333333
vt 0.732688 0.666667
vt 0.665381 0.666667
vt 0.201922 0.333333
vt 0.201922 0.666667
vt 0.134615 0.666667
vt 0.134615 0.333333
vt 0.933652 0.666667
vt 0.867303 0.666667
vt 0.867303 0.333333
vt 0.933652 0.333333
vt 0.067308 0.333333
vt 0.134615 0.333333
vt 0.134615 0.666667
vt 0.067308 0.666667
vt 0.530766 0.657140
vt 0.597114 0.657140
vt 0.597114 0.990473
vt 0.530766 0.990473
vt 0.199035 1.000000
vt 0.132690 1.000000
vt 0.132690 0.666667
vt 0.199035 0.666667
vt 0.867303 0.666667
vt 0.799996 0.666667
vt 0.799996 0.333333
vt 0.867303 0.333333
vt 0.398070 1.000000
vt 0.331725 1.000000
vt 0.331725 0.666667
vt 0.398070 0.666667
vt 0.000000 0.333333
vt 0.000000 0.000000
vt 0.331728 0.000000
vt 0.067308 0.666667
vt 0.000000 0.666667
vt 0.000000 0.333333
vt 0.067307 0.333333
vt 0.663463 0.990473
vt 0.597114 0.990473
vt 0.597114 0.657140
vt 0.663463 0.657140
vt 0.530766 0.000000
vt 0.530766 0.333333
vt 0.331728 0.333333
vt 0.331728 0.000000
vt 0.867303 0.333333
vt 0.867303 0.000000
vt 0.934611 0.000000
vt 0.934611 0.333333
vt 0.331728 0.333333
vt 0.732688 0.000000
vt 0.799996 0.000000
vt 0.799996 0.333333
vt 0.732688 0.333333
vt 0.336537 0.666667
vt 0.336537 0.333333
vt 0.403845 0.666667
vt 0.403845 0.333333
vt 0.269230 0.333333
vt 0.269230 0.666667
vt 0.201922 0.666667
vt 0.201922 0.333333
vt 0.269230 0.666667
vt 1.000000 0.666667
vt 0.933652 0.666667
vt 0.933652 0.333333
vt 1.000000 0.333333
vt 0.398070 1.000000
vt 0.398070 0.666667
vt 0.464415 0.666667
vt 0.464415 1.000000
vn -1.0000 0.0000 0.0000
vn 0.0000 0.0000 1.0000
vn 1.0000 0.0000 0.0000
vn 0.0000 -1.0000 -0.0000
vn 0.0000 0.0000 -1.0000
vn 0.0000 1.0000 0.0000
usemtl None
s 1
f 25/69/7 26/70/7 27/71/7
f 25/69/7 27/71/7 28/72/7
f 29/73/7 30/74/7 31/75/7
f 29/73/7 31/75/7 28/76/7
f 32/77/7 30/78/7 33/79/7
f 32/77/7 33/79/7 34/80/7
f 35/81/7 36/82/7 37/83/7
f 35/81/7 37/83/7 38/84/7
f 39/85/7 40/86/7 41/87/7
f 42/88/7 43/89/7 44/90/7
f 43/89/7 40/86/7 44/90/7
f 39/85/7 44/90/7 40/86/7
f 45/91/7 26/92/7 43/89/7
f 40/86/7 43/89/7 26/92/7
f 46/93/7 37/94/7 47/95/7
f 46/93/7 47/95/7 44/96/7
f 48/97/8 35/98/8 38/99/8
f 48/97/8 38/99/8 49/100/8
f 50/101/9 51/102/9 52/103/9
f 34/104/10 53/105/10 54/106/10
f 34/104/10 54/106/10 32/107/10
f 41/108/10 55/109/10 56/110/10
f 41/108/10 56/110/10 39/111/10
f 57/112/9 58/113/9 59/114/9
f 57/112/9 59/114/9 60/115/9
f 61/116/9 62/117/9 63/118/9
f 61/116/9 63/118/9 64/119/9
f 53/120/11 34/121/11 33/122/11
f 53/120/11 33/122/11 65/123/11
f 65/124/9 61/125/9 54/126/9
f 65/124/9 54/126/9 53/127/9
f 66/128/12 36/129/12 35/130/12
f 66/128/12 35/130/12 48/131/12
f 63/132/9 67/133/9 50/134/9
f 63/132/9 50/134/9 68/135/9
f 59/136/9 56/137/9 69/138/9
f 55/139/9 69/138/9 56/137/9
f 27/140/11 67/141/11 63/142/11
f 27/140/11 63/142/11 28/143/11
f 52/103/9 69/138/9 50/101/9
f 45/144/11 51/145/11 50/146/11
f 45/144/11 50/146/11 26/147/11
f 26/148/8 25/149/8 68/150/8
f 26/148/8 68/150/8 50/151/8
f 49/152/9 57/153/9 66/154/9
f 49/152/9 66/154/9 48/155/9
f 45/156/12 52/157/12 51/158/12
f 67/159/12 27/160/12 26/161/12
f 67/159/12 26/161/12 50/162/12
f 69/138/9 52/103/9 59/136/9
f 59/136/9 52/103/9 70/163/9
f 63/164/10 68/165/10 25/166/10
f 63/164/10 25/166/10 28/167/10
f 62/168/12 29/169/12 28/170/12
f 62/168/12 28/170/12 63/171/12
f 28/172/8 31/173/8 64/174/8
f 28/172/8 64/174/8 63/175/8
f 33/176/12 30/177/12 61/178/12
f 33/176/12 61/178/12 65/179/12
f 62/180/11 61/181/11 30/182/11
f 62/180/11 30/182/11 29/183/11
f 30/184/8 32/185/8 54/186/8
f 30/184/8 54/186/8 61/187/8
f 61/188/10 64/189/10 31/190/10
f 61/188/10 31/190/10 30/191/10
f 66/192/11 57/193/11 37/194/11
f 66/192/11 37/194/11 36/195/11
f 39/196/8 56/197/8 59/198/8
f 57/199/10 49/200/10 38/201/10
f 57/199/10 38/201/10 37/202/10
f 60/203/11 59/204/11 44/205/11
f 60/203/11 44/205/11 47/206/11
f 55/207/11 41/208/11 40/209/11
f 55/207/11 40/209/11 69/210/11
f 60/211/12 47/212/12 37/213/12
f 60/211/12 37/213/12 57/214/12
f 44/215/8 39/196/8 59/198/8
f 59/216/12 70/217/12 42/218/12
f 59/216/12 42/218/12 44/219/12
f 26/220/10 50/221/10 40/222/10
f 69/223/10 40/222/10 50/221/10
f 58/224/10 46/225/10 44/226/10
f 58/224/10 44/226/10 59/227/10
f 45/156/12 43/228/12 52/157/12
f 37/229/8 46/230/8 58/231/8
f 37/229/8 58/231/8 57/232/8
f 42/233/11 70/234/11 52/235/11
f 42/233/11 52/235/11 43/236/11
o Standard
v -72.115402 0.000008 -25.000000
v -72.115402 -0.000008 25.000000
v -72.115402 138.298004 -24.999977
v -72.115402 138.298004 25.000023
v -22.115398 0.000008 -25.000000
v -22.115398 -0.000008 25.000000
v -22.115398 138.298004 25.000023
v -69.115402 150.000000 -22.999975
v -69.115402 139.362000 -22.999977
v -69.115402 139.362000 -17.999977
v -69.115402 150.000000 -17.999975
v -25.115398 139.362000 -22.999977
v -25.115398 139.362000 -17.999977
v -45.115398 139.362000 -17.999977
v -45.115398 139.362000 -22.999977
v -25.115398 150.000000 -22.999975
v -45.115398 150.000000 -22.999975
v -49.115398 139.362000 -22.999977
v -49.115398 139.362000 -17.999977
v -49.115398 150.000000 -22.999975
v -49.115398 139.362000 19.000023
v -49.115398 150.000000 19.000025
v -49.115398 150.000000 24.000025
v -49.115398 139.362000 24.000023
v -45.115398 150.000000 -17.999975
v -25.115398 150.000000 -17.999975
v -22.115398 138.298004 -24.999977
v -69.115402 150.000000 24.000025
v -69.115402 150.000000 19.000025
v -69.115402 139.362000 19.000023
v -69.115402 139.362000 24.000023
v -49.115398 150.000000 -17.999975
v -45.115398 150.000000 24.000025
v -45.115398 150.000000 19.000025
v -45.115398 139.362000 19.000023
v -45.115398 139.362000 24.000023
v -25.115398 150.000000 19.000025
v -25.115398 139.362000 19.000023
v -25.115398 150.000000 24.000025
v -25.115398 139.362000 24.000023
vt 0.500000 0.734463
vt 0.250000 0.734463
vt 0.500000 0.000000
vt 0.250000 0.000000
vt 0.000000 1.000000
vt 0.000000 0.734464
vt 0.250000 0.734463
vt 0.250000 1.000000
vt 0.750000 0.734463
vt 0.500000 0.000000
vt 0.750000 0.000000
vt 0.500000 0.734463
vt 0.897330 0.734463
vt 0.897330 0.790959
vt 0.872330 0.790959
vt 0.872330 0.734463
vt 0.653190 0.840678
vt 0.678190 0.840678
vt 0.678190 0.946893
vt 0.653190 0.946893
vt 0.553190 0.946893
vt 0.500000 0.946893
vt 0.500000 0.840678
vt 0.553190 0.840678
vt 0.000000 0.000000
vt 0.250000 0.734463
vt 0.000000 0.734463
vt 0.628190 0.840678
vt 0.653190 0.840678
vt 0.653190 0.946893
vt 0.628190 0.946893
vt 0.872330 0.840678
vt 0.819140 0.840678
vt 0.819140 0.734463
vt 0.872330 0.734463
vt 0.753190 0.897174
vt 0.753190 0.840678
vt 0.778190 0.840678
vt 0.778190 0.897174
vt 0.578190 0.946893
vt 0.553190 0.946893
vt 0.553190 0.840678
vt 0.578190 0.840678
vt 0.750000 0.734463
vt 0.750000 0.000000
vt 1.000000 0.734463
vt 0.853190 0.840678
vt 0.878190 0.840678
vt 0.878190 0.897174
vt 0.853190 0.897174
vt 0.753190 0.897174
vt 0.778190 0.897174
vt 0.778190 0.953669
vt 0.753190 0.953669
vt 0.712760 0.840678
vt 0.712760 0.734463
vt 0.765950 0.734463
vt 0.765950 0.840678
vt 0.728190 0.946893
vt 0.728190 0.840678
vt 0.753190 0.840678
vt 0.753190 0.946893
vt 0.778190 0.897174
vt 0.803190 0.897174
vt 0.803190 0.953669
vt 0.778190 0.953669
vt 0.828190 0.840678
vt 0.853190 0.840678
vt 0.853190 0.897174
vt 0.828190 0.897174
vt 0.603190 0.840678
vt 0.628190 0.840678
vt 0.628190 0.946893
vt 0.603190 0.946893
vt 0.250000 0.734464
vt 0.500000 0.734463
vt 0.250000 1.000000
vt 0.500000 1.000000
vt 0.606380 0.734463
vt 0.606380 0.840678
vt 0.553190 0.840678
vt 0.553190 0.734463
vt 0.819140 0.840678
vt 0.765950 0.840678
vt 0.765950 0.734463
vt 0.819140 0.734463
vt 0.606380 0.734463
vt 0.659570 0.734463
vt 0.659570 0.840678
vt 0.606380 0.840678
vt 0.678190 0.946893
vt 0.678190 0.840678
vt 0.703190 0.840678
vt 0.703190 0.946893
vt 0.778190 0.840678
vt 0.803190 0.840678
vt 0.803190 0.897174
vt 0.778190 0.897174
vt 0.703190 0.840678
vt 0.728190 0.840678
vt 0.728190 0.946893
vt 0.703190 0.946893
vt 0.803190 0.840678
vt 0.828190 0.840678
vt 0.828190 0.897174
vt 0.803190 0.897174
vt 1.000000 0.000000
vt 0.250000 0.000000
vt 0.578190 0.840678
vt 0.603190 0.840678
vt 0.603190 0.946893
vt 0.578190 0.946893
vt 0.712760 0.840678
vt 0.659570 0.840678
vt 0.659570 0.734463
vt 0.712760 0.734463
vt 0.553190 0.840678
vt 0.500000 0.840678
vt 0.500000 0.734463
vt 0.553190 0.734463
vn -1.0000 -0.0000 0.0000
vn 0.0000 -1.0000 -0.0000
vn 0.0000 -0.0000 1.0000
vn 0.0000 0.0000 -1.0000
vn 1.0000 -0.0000 0.0000
vn 0.0000 1.0000 0.0000
usemtl None
s 1
f 71/237/13 72/238/13 73/239/13
f 72/238/13 74/240/13 73/239/13
f 71/241/14 75/242/14 76/243/14
f 71/241/14 76/243/14 72/244/14
f 72/245/15 77/246/15 74/247/15
f 77/246/15 72/245/15 76/248/15
f 78/249/13 79/250/13 80/251/13
f 78/249/13 80/251/13 81/252/13
f 82/253/14 83/254/14 84/255/14
f 82/253/14 84/255/14 85/256/14
f 86/257/16 82/258/16 85/259/16
f 86/257/16 85/259/16 87/260/16
f 73/261/16 75/262/16 71/263/16
f 88/264/14 89/265/14 80/266/14
f 88/264/14 80/266/14 79/267/14
f 90/268/16 88/269/16 79/270/16
f 90/268/16 79/270/16 78/271/16
f 91/272/17 92/273/17 93/274/17
f 91/272/17 93/274/17 94/275/17
f 87/276/18 95/277/18 96/278/18
f 87/276/18 96/278/18 86/279/18
f 77/280/17 76/281/17 97/282/17
f 98/283/13 99/284/13 100/285/13
f 98/283/13 100/285/13 101/286/13
f 90/287/17 102/288/17 89/289/17
f 90/287/17 89/289/17 88/290/17
f 91/291/16 100/292/16 99/293/16
f 91/291/16 99/293/16 92/294/16
f 81/295/18 102/296/18 90/297/18
f 81/295/18 90/297/18 78/298/18
f 86/299/17 96/300/17 83/301/17
f 86/299/17 83/301/17 82/302/17
f 103/303/13 104/304/13 105/305/13
f 103/303/13 105/305/13 106/306/13
f 93/307/18 92/308/18 99/309/18
f 93/307/18 99/309/18 98/310/18
f 77/311/18 97/312/18 74/313/18
f 74/313/18 97/312/18 73/314/18
f 96/315/15 95/316/15 84/317/15
f 96/315/15 84/317/15 83/318/15
f 107/319/16 108/320/16 105/321/16
f 107/319/16 105/321/16 104/322/16
f 89/323/15 102/324/15 81/325/15
f 89/323/15 81/325/15 80/326/15
f 100/327/14 91/328/14 94/329/14
f 100/327/14 94/329/14 101/330/14
f 107/331/17 109/332/17 110/333/17
f 107/331/17 110/333/17 108/334/17
f 109/335/18 107/336/18 104/337/18
f 109/335/18 104/337/18 103/338/18
f 95/339/13 87/340/13 85/341/13
f 95/339/13 85/341/13 84/342/13
f 75/343/17 97/282/17 76/281/17
f 75/262/16 73/261/16 97/344/16
f 108/345/14 110/346/14 106/347/14
f 108/345/14 106/347/14 105/348/14
f 98/349/15 101/350/15 94/351/15
f 98/349/15 94/351/15 93/352/15
f 103/353/15 106/354/15 110/355/15
f 103/353/15 110/355/15 109/356/15