# Blender v2.79 (sub 0) OBJ File: ''
# www.blender.org
mtllib full_wall.mtl
o Middle
v -22.526226 0.000008 -25.090006
v -22.526226 -0.000008 24.909994
v -22.526226 138.298004 24.910017
v -22.526226 138.298004 -25.089983
v 27.473774 -0.000008 24.909994
v 27.473774 138.298004 24.910017
v 27.473774 138.298004 -25.089983
v 27.473774 0.000008 -25.090006
v 25.473774 139.000000 18.910017
v 25.473774 150.000000 18.910019
v 25.473774 150.000000 23.910019
v 25.473774 139.000000 23.910017
v 5.473774 150.000000 23.910019
v 5.473774 139.000000 23.910017
v -19.526226 150.000000 18.910019
v -19.526226 139.000000 18.910017
v -19.526226 139.000000 23.910017
v -19.526226 150.000000 23.910019
v 5.473774 139.000000 18.910017
v 5.473774 150.000000 18.910019
v 0.473774 150.000000 23.910019
v 0.473774 139.000000 23.910017
v 0.473774 139.000000 18.910017
v 0.473774 150.000000 18.910019
vt 0.500000 0.734463
vt 0.250000 0.734463
vt 0.250000 0.000000
vt 0.500000 0.000000
vt 0.750000 0.734463
vt 0.500000 0.734463
vt 0.750000 0.000000
vt 0.500000 0.000000
vt 1.000000 0.734463
vt 0.750000 0.734463
vt 0.750000 0.000000
vt 1.000000 0.000000
vt 0.525000 0.899096
vt 0.525000 0.840678
vt 0.550000 0.840678
vt 0.550000 0.899096
vt 0.610000 0.840678
vt 0.555000 0.840678
vt 0.555000 0.734463
vt 0.610000 0.734463
vt 0.845000 0.792882
vt 0.845000 0.851300
vt 0.820000 0.851300
vt 0.820000 0.792882
vt 0.665000 0.734463
vt 0.720000 0.734463
vt 0.720000 0.840678
vt 0.665000 0.840678
vt 0.250000 0.734463
vt 0.000000 0.734463
vt 0.250000 0.000000
vt 0.820000 0.792882
vt 0.820000 0.734463
vt 0.845000 0.734463
vt 0.845000 0.792882
vt 0.525000 0.840678
vt 0.525000 0.899096
vt 0.500000 0.899096
vt 0.500000 0.840678
vt 0.000000 0.000000
vt 0.770000 0.734463
vt 0.770000 0.840678
vt 0.745000 0.840678
vt 0.745000 0.734463
vt 0.795000 0.840678
vt 0.795000 0.734463
vt 0.820000 0.734463
vt 0.820000 0.840678
vt 0.250000 1.000000
vt 0.000000 0.734464
vt 0.250000 0.734463
vt 0.000000 1.000000
vt 0.745000 0.734463
vt 0.745000 0.840678
vt 0.250000 1.000000
vt 0.500000 1.000000
vt 0.795000 0.734463
vt 0.795000 0.840678
vt 0.770000 0.840678
vt 0.770000 0.734463
vt 0.555000 0.840678
vt 0.500000 0.840678
vt 0.500000 0.734463
vt 0.555000 0.734463
vt 0.610000 0.840678
vt 0.610000 0.734463
vt 0.665000 0.734463
vt 0.665000 0.840678
vn -1.0000 0.0000 0.0000
vn 0.0000 -0.0000 1.0000
vn 1.0000 0.0000 0.0000
vn 0.0000 0.0000 -1.0000
vn 0.0000 1.0000 0.0000
vn 0.0000 -1.0000 0.0000
usemtl None
s 1
f 1/1/1 2/2/1 3/3/1
f 1/1/1 3/3/1 4/4/1
f 2/5/2 5/6/2 3/7/2
f 6/8/2 3/7/2 5/6/2
f 7/9/3 6/10/3 5/11/3
f 7/9/3 5/11/3 8/12/3
f 9/13/3 10/14/3 11/15/3
f 9/13/3 11/15/3 12/16/3
f 13/17/2 14/18/2 12/19/2
f 13/17/2 12/19/2 11/20/2
f 15/21/1 16/22/1 17/23/1
f 15/21/1 17/23/1 18/24/1
f 10/25/4 9/26/4 19/27/4
f 10/25/4 19/27/4 20/28/4
f 8/29/4 1/30/4 7/31/4
f 14/32/1 13/33/1 20/34/1
f 14/32/1 20/34/1 19/35/1
f 21/36/3 22/37/3 23/38/3
f 21/36/3 23/38/3 24/39/3
f 4/40/4 7/31/4 1/30/4
f 24/41/5 15/42/5 18/43/5
f 24/41/5 18/43/5 21/44/5
f 13/45/5 11/46/5 10/47/5
f 13/45/5 10/47/5 20/48/5
f 4/49/5 6/50/5 7/51/5
f 4/49/5 3/52/5 6/50/5
f 12/53/6 14/54/6 19/27/6
f 12/53/6 19/27/6 9/26/6
f 1/55/6 8/29/6 5/6/6
f 5/6/6 2/56/6 1/55/6
f 22/57/6 17/58/6 16/59/6
f 22/57/6 16/59/6 23/60/6
f 18/61/2 17/62/2 22/63/2
f 18/61/2 22/63/2 21/64/2
f 23/65/4 16/66/4 15/67/4
f 23/65/4 15/67/4 24/68/4
o Stair1
v -23.234095 39.429016 -104.929443
v -23.234095 59.143021 -104.929443
v -23.234095 59.143024 -124.929443
v -23.234095 39.429024 -124.929443
v -23.234095 39.429024 -144.929443
v -23.234095 19.714024 -144.929443
v -23.234095 19.714024 -124.929451
v -23.234095 0.000023 -144.929443
v -23.234095 19.714027 -164.929443
v -23.234095 0.000027 -164.929443
v -23.234095 138.000000 -24.929432
v -23.234095 138.000000 -44.929432
v -23.234095 118.286011 -44.929432
v -23.234095 118.286011 -24.929432
v -23.234095 0.000011 -64.929451
v -23.234095 59.143017 -84.929443
v -23.234095 0.000015 -84.929451
v -23.234095 98.571014 -84.929436
v -23.234095 78.857018 -84.929443
v -23.234095 98.571014 -64.929436
v -23.234095 78.857018 -104.929443
v -23.234095 98.571007 -44.929436
v -23.234095 118.286011 -64.929436
v 76.765907 138.000000 -24.929432
v 76.765907 118.286011 -24.929432
v 76.765907 59.143021 -104.929443
v 76.765907 78.857018 -104.929443
v 76.765907 78.857018 -84.929443
v 76.765907 0.000027 -164.929443
v 76.765907 0.000023 -144.929443
v 76.765907 0.000015 -84.929451
v 76.765907 0.000011 -64.929451
v 76.765907 118.286011 -44.929432
v 76.765907 98.571007 -44.929436
v 76.765907 98.571014 -64.929436
v 76.765907 118.286011 -64.929436
v 76.765907 19.714024 -144.929443
v 76.765907 39.429024 -144.929443
v 76.765907 39.429024 -124.929443
v 76.765907 19.714024 -124.929451
v 76.765907 19.714027 -164.929443
v 76.765907 138.000000 -44.929432
v 76.765907 59.143024 -124.929443
v 76.765907 39.429016 -104.929443
v 76.765907 59.143017 -84.929443
v 76.765907 98.571014 -84.929436
vt 0.864423 0.800000
vt 0.798078 0.800000
vt 0.798078 0.733333
vt 0.864422 0.733333
vt 0.731729 0.733333
vt 0.798078 0.733333
vt 0.798078 0.800000
vt 0.731729 0.800000
vt 0.798074 0.866667
vt 0.731729 0.866667
vt 0.731729 0.800000
vt 0.798074 0.800000
vt 0.798078 0.733333
vt 0.798078 0.666667
vt 0.864423 0.666667
vt 0.864423 0.733333
vt 0.530766 0.328570
vt 0.598074 0.131427
vt 0.598074 0.328570
vt 0.598073 0.000000
vt 0.598074 0.065713
vt 0.530766 0.000000
vt 0.665381 0.065713
vt 0.665381 0.131427
vt 0.731729 0.800000
vt 0.665381 0.800000
vt 0.665381 0.733333
vt 0.731729 0.733333
vt 0.530759 0.666667
vt 0.530759 1.000000
vt 0.464415 1.000000
vt 0.464415 0.666667
vt 0.665381 0.525713
vt 0.665381 0.591427
vt 0.598074 0.591427
vt 0.732688 0.666667
vt 0.732688 0.333333
vt 0.799996 0.333333
vt 0.799996 0.666667
vt 0.403845 0.666667
vt 0.403845 0.333333
vt 0.471152 0.333333
vt 0.471152 0.666667
vt 0.731729 0.666667
vt 0.798078 0.666667
vt 0.798078 0.733333
vt 0.731729 0.733333
vt 0.731729 0.733333
vt 0.665381 0.733333
vt 0.665381 0.666667
vt 0.731729 0.666667
vt 0.066345 1.000000
vt 0.066345 0.666667
vt 0.132690 0.666667
vt 0.132690 1.000000
vt 0.864422 0.800000
vt 0.864422 0.866666
vt 0.798078 0.866666
vt 0.798078 0.800000
vt 0.867303 0.000000
vt 0.867303 0.333333
vt 0.799996 0.333333
vt 0.799996 0.000000
vt 0.731726 0.866667
vt 0.665381 0.866667
vt 0.665381 0.800000
vt 0.731726 0.800000
vt 0.530766 0.657140
vt 0.530766 0.328570
vt 0.598074 0.525713
vt 0.598074 0.328570
vt 0.199035 1.000000
vt 0.199035 0.666667
vt 0.265380 0.666667
vt 0.265380 1.000000
vt 0.000000 1.000000
vt 0.000000 0.666667
vt 0.066345 0.666667
vt 0.066345 1.000000
vt 0.331725 1.000000
vt 0.265380 1.000000
vt 0.265380 0.666667
vt 0.331725 0.666667
vt 0.930767 0.733333
vt 0.930767 0.800000
vt 0.864423 0.800000
vt 0.864423 0.733333
vt 0.336537 0.666667
vt 0.269230 0.333333
vt 0.336537 0.333333
vt 0.732688 0.000000
vt 0.732688 0.333333
vt 0.665381 0.333333
vt 0.665381 0.000000
vt 0.598074 0.657140
vt 0.665381 0.333333
vt 0.732688 0.333333
vt 0.732688 0.666667
vt 0.665381 0.666667
vt 0.201922 0.333333
vt 0.201922 0.666667
vt 0.134615 0.666667
vt 0.134615 0.333333
vt 0.933652 0.666667
vt 0.867303 0.666667
vt 0.867303 0.333333
vt 0.933652 0.333333
vt 0.067308 0.333333
vt 0.134615 0.333333
vt 0.134615 0.666667
vt 0.067308 0.666667
vt 0.530766 0.657140
vt 0.597114 0.657140
vt 0.597114 0.990473
vt 0.530766 0.990473
vt 0.199035 1.000000
vt 0.132690 1.000000
vt 0.132690 0.666667
vt 0.199035 0.666667
vt 0.867303 0.666667
vt 0.799996 0.666667
vt 0.799996 0.333333
vt 0.867303 0.333333
vt 0.398070 1.000000
vt 0.331725 1.000000
vt 0.331725 0.666667
vt 0.398070 0.666667
vt 0.000000 0.333333
vt 0.000000 0.000000
vt 0.331728 0.000000
vt 0.067308 0.666667
vt 0.000000 0.666667
vt 0.000000 0.333333
vt 0.067307 0.333333
vt 0.663463 0.990473
vt 0.597114 0.990473
vt 0.597114 0.657140
vt 0.663463 0.657140
vt 0.530766 0.000000
vt 0.530766 0.333333
vt 0.331728 0.333333
vt 0.331728 0.000000
vt 0.867303 0.333333
vt 0.867303 0.000000
vt 0.934611 0.000000
vt 0.934611 0.333333
vt 0.331728 0.333333
vt 0.732688 0.000000
vt 0.799996 0.000000
vt 0.799996 0.333333
vt 0.732688 0.333333
vt 0.336537 0.666667
vt 0.336537 0.333333
vt 0.403845 0.666667
vt 0.403845 0.333333
vt 0.269230 0.333333
vt 0.269230 0.666667
vt 0.201922 0.666667
vt 0.201922 0.333333
vt 0.269230 0.666667
vt 1.000000 0.666667
vt 0.933652 0.666667
vt 0.933652 0.333333
vt 1.000000 0.333333
vt 0.398070 1.000000
vt 0.398070 0.666667
vt 0.464415 0.666667
vt 0.464415 1.000000
vn -1.0000 0.0000 0.0000
vn 0.0000 0.0000 1.0000
vn 1.0000 0.0000 0.0000
vn 0.0000 -1.0000 -0.0000
vn 0.0000 0.0000 -1.0000
vn 0.0000 1.0000 0.0000
usemtl None
s 1
f 25/69/7 26/70/7 27/71/7
f 25/69/7 27/71/7 28/72/7
f 29/73/7 30/74/7 31/75/7
f 29/73/7 31/75/7 28/76/7
f 32/77/7 30/78/7 33/79/7
f 32/77/7 33/79/7 34/80/7
f 35/81/7 36/82/7 37/83/7
f 35/81/7 37/83/7 38/84/7
f 39/85/7 40/86/7 41/87/7
f 42/88/7 43/89/7 44/90/7
f 43/89/7 40/86/7 44/90/7
f 39/85/7 44/90/7 40/86/7
o Stair2
f 45/91/7 26/92/7 43/89/7
f 40/86/7 43/89/7 26/92/7
f 46/93/7 37/94/7 47/95/7
f 46/93/7 47/95/7 44/96/7
f 48/97/8 35/98/8 38/99/8
f 48/97/8 38/99/8 49/100/8
f 50/101/9 51/102/9 52/103/9
f 34/104/10 53/105/10 54/106/10
f 34/104/10 54/106/10 32/107/10
f 41/108/10 55/109/10 56/110/10
f 41/108/10 56/110/10 39/111/10
f 57/112/9 58/113/9 59/114/9
o Stair3
f 57/112/9 59/114/9 60/115/9
f 61/116/9 62/117/9 63/118/9
f 61/116/9 63/118/9 64/119/9
f 53/120/11 34/121/11 33/122/11
f 53/120/11 33/122/11 65/123/11
f 65/124/9 61/125/9 54/126/9
f 65/124/9 54/126/9 53/127/9
f 66/128/12 36/129/12 35/130/12
f 66/128/12 35/130/12 48/131/12
f 63/132/9 67/133/9 50/134/9
f 63/132/9 50/134/9 68/135/9
f 59/136/9 56/137/9 69/138/9
o Stair4
f 55/139/9 69/138/9 56/137/9
f 27/140/11 67/141/11 63/142/11
f 27/140/11 63/142/11 28/143/11
f 52/103/9 69/138/9 50/101/9
f 45/144/11 51/145/11 50/146/11
f 45/144/11 50/146/11 26/147/11
f 26/148/8 25/149/8 68/150/8
f 26/148/8 68/150/8 50/151/8
f 49/152/9 57/153/9 66/154/9
f 49/152/9 66/154/9 48/155/9
f 45/156/12 52/157/12 51/158/12
f 67/159/12 27/160/12 26/161/12
o Stair5
f 67/159/12 26/161/12 50/162/12
f 69/138/9 52/103/9 59/136/9
f 59/136/9 52/103/9 70/163/9
f 63/164/10 68/165/10 25/166/10
f 63/164/10 25/166/10 28/167/10
f 62/168/12 29/169/12 28/170/12
f 62/168/12 28/170/12 63/171/12
f 28/172/8 31/173/8 64/174/8
f 28/172/8 64/174/8 63/175/8
f 33/176/12 30/177/12 61/178/12
f 33/176/12 61/178/12 65/179/12
f 62/180/11 61/181/11 30/182/11
o Stair6
f 62/180/11 30/182/11 29/183/11
f 30/184/8 32/185/8 54/186/8
f 30/184/8 54/186/8 61/187/8
f 61/188/10 64/189/10 31/190/10
f 61/188/10 31/190/10 30/191/10
f 66/192/11 57/193/11 37/194/11
f 66/192/11 37/194/11 36/195/11
f 39/196/8 56/197/8 59/198/8
f 57/199/10 49/200/10 38/201/10
f 57/199/10 38/201/10 37/202/10
f 60/203/11 59/204/11 44/205/11
f 60/203/11 44/205/11 47/206/11
o Stair7
f 55/207/11 41/208/11 40/209/11
f 55/207/11 40/209/11 69/210/11
f 60/211/12 47/212/12 37/213/12
f 60/211/12 37/213/12 57/214/12
f 44/215/8 39/196/8 59/198/8
f 59/216/12 70/217/12 42/218/12
f 59/216/12 42/218/12 44/219/12
f 26/220/10 50/221/10 40/222/10
f 69/223/10 40/222/10 50/221/10
f 58/224/10 46/225/10 44/226/10
f 58/224/10 44/226/10 59/227/10
f 45/156/12 43/228/12 52/157/12
f 37/229/8 46/230/8 58/231/8
f 37/229/8 58/231/8 57/232/8
f 42/233/11 70/234/11 52/235/11
f 42/233/11 52/235/11 43/236/11